<svg width="66" height="66" xmlns="http://www.w3.org/2000/svg" xmlns:sketch="http://www.bohemiancoding.com/sketch/ns"><title>sketches 1</title><path d="M63.218 38.978c1.232 0 2.379-.999 2.546-2.22 0 0 .236-1.716.236-3.757 0-2.041-.236-3.757-.236-3.757-.168-1.222-1.314-2.22-2.546-2.22h-6.368c-1.233 0-2.513-.786-2.845-1.746-.331-.96-.787-4.041.084-4.912l4.501-4.501c.871-.872.939-2.36.149-3.307l-5.296-5.297c-.947-.79-2.434-.723-3.307.149l-4.501 4.501c-.871.872-2.324 1.223-3.226.781-.903-.442-3.433-2.307-3.433-3.54v-6.368c0-1.233-.999-2.379-2.22-2.547 0 0-1.716-.236-3.757-.236-2.041 0-3.757.236-3.757.236-1.222.168-2.221 1.314-2.221 2.547v6.368c0 1.233-.785 2.513-1.746 2.845-.961.331-4.041.787-4.913-.084l-4.501-4.501c-.872-.872-2.36-.939-3.306-.15l-5.297 5.297c-.79.947-.723 2.435.149 3.307l4.501 4.501c.872.872 1.224 2.324.781 3.226-.443.902-2.307 3.433-3.54 3.433h-6.367c-1.233 0-2.379.999-2.547 2.22 0 0-.236 1.716-.236 3.757 0 2.041.236 3.757.236 3.757.168 1.222 1.314 2.22 2.547 2.22h6.368c1.233 0 2.513.785 2.844 1.746.331.96.787 4.041-.084 4.912l-4.501 4.501c-.872.872-.939 2.36-.149 3.307l5.296 5.297c.947.789 2.434.723 3.306-.149l4.501-4.501c.872-.871 2.324-1.223 3.227-.781.903.442 3.433 2.307 3.433 3.54v6.368c0 1.232.999 2.379 2.221 2.546 0 0 1.715.236 3.757.236 2.041 0 3.757-.236 3.757-.236 1.222-.168 2.22-1.314 2.22-2.546v-6.368c0-1.233.785-2.513 1.746-2.845.961-.331 4.041-.787 4.913.084l4.501 4.501c.872.871 2.36.939 3.307.149l5.296-5.295c.789-.947.723-2.434-.15-3.307l-4.501-4.501c-.872-.872-1.224-2.324-.781-3.227.442-.903 2.307-3.433 3.54-3.433h6.368zm-30.218 6.022c-6.627 0-12-5.372-12-12 0-6.627 5.373-12 12-12s12 5.373 12 12-5.373 12-12 12z" fill="#494949" sketch:type="MSShapeGroup"/></svg>