<?xml version="1.0" encoding="UTF-8" standalone="no"?>
<svg width="66px" height="66px" viewBox="0 0 66 66" version="1.1" xmlns="http://www.w3.org/2000/svg" xmlns:xlink="http://www.w3.org/1999/xlink" xmlns:sketch="http://www.bohemiancoding.com/sketch/ns">
    <title>sketches 1</title>
    <description>Created with Sketch (http://www.bohemiancoding.com/sketch)</description>
    <defs></defs>
    <g id="Page-1" stroke="none" stroke-width="1" fill="none" fill-rule="evenodd" sketch:type="MSPage">
        <path d="M63.2180722,38.9783996 C64.4503045,38.9783996 65.596736,37.9791396 65.7643776,36.7581152 C65.7643776,36.7581152 66,35.0420808 66,33.00132 C66,30.9605592 65.7643776,29.2445249 65.7643776,29.2445249 C65.596076,28.0228405 64.4503045,27.0242405 63.2180722,27.0242405 L56.8503285,27.0242405 C55.6174362,27.0242405 54.3370234,26.2381648 54.0057001,25.2778456 C53.6743767,24.3175264 53.2183122,21.2365847 54.0901809,20.3653673 L58.5914259,15.8640773 C59.4626346,14.9921998 59.5299553,13.5045301 58.7405874,12.5574111 L53.4446944,7.2601452 C52.497585,6.4701094 51.0105901,6.53743075 50.1380614,7.40930819 L45.6368164,11.9105982 C44.7656077,12.7824756 43.3129331,13.1336027 42.4107041,12.6913938 C41.5078151,12.249185 38.9780098,10.3839877 38.9780098,9.15108302 L38.9780098,2.78327567 C38.9780098,1.55037101 37.9787598,0.404588092 36.7577476,0.236284726 C36.7577476,0.236284726 35.0417304,0 33.00099,0 C30.9602496,0 29.2442324,0.236284726 29.2442324,0.236284726 C28.0225602,0.403928079 27.0233102,1.55037101 27.0233102,2.78327567 L27.0233102,9.15108302 C27.0233102,10.3839877 26.2379024,11.6637533 25.2769328,11.9957399 C24.3159632,12.3270665 21.2357124,12.7831357 20.3638436,11.9112582 L15.8625986,7.4099682 C14.9907299,6.53809076 13.503075,6.47076942 12.5566256,7.2601452 L7.2600726,12.5567511 C6.4700447,13.5038701 6.53736537,14.9915398 7.40923409,15.8634173 L11.9098191,20.3647073 C12.7816878,21.2365847 13.1334713,22.6886138 12.6906069,23.5908518 C12.2477425,24.4930899 10.3832238,27.0235805 9.1503315,27.0235805 L2.78324783,27.0235805 C1.5503555,27.0235805 0.404584046,28.0228405 0.236282363,29.2438649 C0.236282363,29.2438649 0,30.9598992 0,33.00066 C0,35.0420808 0.236282363,36.7574551 0.236282363,36.7574551 C0.403924039,37.9791396 1.5503555,38.9777396 2.78324783,38.9777396 L9.15099151,38.9777396 C10.3838838,38.9777396 11.6636366,39.7631553 11.9949599,40.7241345 C12.3262833,41.6844537 12.7823478,44.7647353 11.9104791,45.6366127 L7.4098941,50.1372427 C6.53802538,51.0091202 6.47070471,52.4967899 7.26073261,53.4439089 L12.5566256,58.7411748 C13.503735,59.5305506 14.9907299,59.4638893 15.8625986,58.5920118 L20.3638436,54.0907218 C21.2357124,53.2195044 22.6877269,52.8677174 23.5906159,53.3099262 C24.4935049,53.752135 27.0233102,55.6173323 27.0233102,56.850237 L27.0233102,63.2180444 C27.0233102,64.450289 28.0225602,65.5967319 29.2442324,65.7643753 C29.2442324,65.7643753 30.9595896,66 33.00099,66 C35.0423904,66 36.7577476,65.7643753 36.7577476,65.7643753 C37.9794198,65.5960719 38.9780098,64.450289 38.9780098,63.2180444 L38.9780098,56.850237 C38.9780098,55.6173323 39.7634176,54.3369067 40.7243872,54.0055801 C41.6853569,53.6742535 44.7656077,53.2188444 45.6374764,54.0900618 L50.1380614,58.5913518 C51.0099301,59.4625693 52.497585,59.5298906 53.4446944,58.7405148 L58.7405874,53.4452289 C59.5299553,52.49811 59.4632946,51.0111002 58.5907659,50.1385628 L54.0901809,45.6379328 C53.2183122,44.7660553 52.8665287,43.3140263 53.3093931,42.4111282 C53.7515975,41.5082302 55.6167762,38.9783996 56.8496685,38.9783996 L63.2180722,38.9783996 L63.2180722,38.9783996 Z M33,45 C26.3725276,45 21,39.6281281 21,33 C21,26.3731833 26.3725276,21 33,21 C39.6274724,21 45,26.3725276 45,33 C45,39.6274724 39.6274724,45 33,45 L33,45 Z" id="Shape" fill="#494949" sketch:type="MSShapeGroup"></path>
    </g>
</svg>